<?xml version="1.0" encoding="UTF-8"?>
<!DOCTYPE svg PUBLIC "-//W3C//DTD SVG 1.1//EN" "http://www.w3.org/Graphics/SVG/1.1/DTD/svg11.dtd">
<!-- Creator: CorelDRAW X7 -->
<svg xmlns="http://www.w3.org/2000/svg" xml:space="preserve" width="191.115mm" height="67.0278mm" version="1.1" style="shape-rendering:geometricPrecision; text-rendering:geometricPrecision; image-rendering:optimizeQuality; fill-rule:evenodd; clip-rule:evenodd"
viewBox="0 0 16059 5632"
 xmlns:xlink="http://www.w3.org/1999/xlink">
 <defs>
  <style type="text/css">
   <![CDATA[
    .fil0 {fill:none}
    .fil1 {fill:#FEFEFE}
   ]]>
  </style>
 </defs>
 <g id="图层_x0020_1">
  <metadata id="CorelCorpID_0Corel-Layer"/>
  <rect class="fil0" width="16059" height="5632"/>
  <path class="fil1" d="M12136 1651l590 -170 -537 1280 0 135 523 1451 -576 -167 0 -2529zm-243 527c0,-213 -35,-486 -225,-618 -205,-142 -635,-157 -874,-157 -237,0 -667,15 -868,156 -191,134 -227,405 -227,619l0 1480c0,215 36,486 227,619 201,142 631,157 868,157 239,0 669,-15 874,-157 190,-132 225,-405 225,-619l0 -1480zm-727 -165l0 1811c0,228 -156,336 -372,336 -216,0 -368,-111 -368,-336l0 -1811c0,-226 152,-337 368,-337 216,0 372,109 372,337zm-1692 165c0,-213 -36,-486 -226,-618 -205,-142 -635,-157 -874,-157 -237,0 -667,15 -868,156 -191,134 -227,405 -227,619l0 1480c0,215 36,486 227,619 201,142 631,157 868,157 239,0 669,-15 874,-157 190,-132 226,-405 226,-619l0 -1480zm-728 -165l0 1811c0,228 -156,336 -372,336 -216,0 -367,-111 -367,-336l0 -1811c0,-226 151,-337 367,-337 216,0 372,109 372,337zm-4941 -569l-717 0 0 2949 2817 0c218,0 769,-6 962,-122 206,-116 233,-442 233,-650 0,-120 -3,-281 -38,-396 -36,-123 -106,-212 -227,-259 -85,-33 -182,-51 -271,-64l-102 -14 0 -200 87 -24c129,-35 314,-99 404,-207 78,-90 94,-236 94,-349 0,-112 -5,-264 -42,-371 -65,-192 -291,-248 -471,-269 -187,-21 -383,-24 -571,-24l-1063 0 0 2159 717 0 0 -732 219 0c194,0 375,65 460,247 55,112 61,289 61,412 0,145 -10,302 -86,427 -89,154 -282,187 -445,187l-2021 0 0 -2700zm1812 208l219 0c137,0 333,12 431,121 81,90 90,249 90,364 0,127 -11,298 -92,402 -90,116 -271,133 -406,133l-242 0 0 -1020zm-4480 192l1737 0 0 -400 -1737 0 0 400zm716 2549l0 -1514 983 0 0 -370 -1699 0 0 1884 716 0zm12992 -3108l-715 198 533 39 0 2775 -768 21 950 235 0 -3268zm-1447 3l494 -142 0 3545 -484 -141 -658 -1834 648 -1428z"/>
 </g>
</svg>
